<svg width="25" height="25" viewBox="0 0 25 25" fill="none" xmlns="http://www.w3.org/2000/svg">
<g clip-path="url(#clip0_11355_3081)">
<path d="M7.32834 24.0508C6.85516 23.7359 6.43579 23.347 6.08634 22.8988C5.70196 22.4361 5.34581 21.9507 5.01984 21.4453C4.2549 20.3246 3.65502 19.0998 3.23859 17.8085C2.73834 16.3085 2.49609 14.8708 2.49609 13.4645C2.49609 11.894 2.83584 10.523 3.50034 9.371C3.99293 8.47058 4.71715 7.71813 5.59809 7.1915C6.45182 6.66123 7.43277 6.37104 8.43759 6.3515C8.78934 6.3515 9.16809 6.4025 9.57009 6.5C9.85884 6.58175 10.2106 6.71075 10.6403 6.87125C11.1871 7.082 11.4878 7.211 11.5898 7.2425C11.9101 7.3595 12.1793 7.4105 12.3908 7.4105C12.5513 7.4105 12.7778 7.3595 13.0351 7.2815C13.1798 7.2305 13.4528 7.1405 13.8436 6.97325C14.2306 6.83225 14.5351 6.7115 14.7773 6.6215C15.1486 6.512 15.5078 6.41075 15.8281 6.35975C16.2078 6.2999 16.593 6.28404 16.9763 6.3125C17.6406 6.35592 18.2948 6.49667 18.9181 6.73025C19.9373 7.1405 20.7616 7.781 21.3751 8.6915C21.1158 8.85132 20.8724 9.03567 20.6483 9.242C20.1605 9.67444 19.7451 10.1821 19.4176 10.7458C18.9896 11.516 18.7677 12.3838 18.7733 13.265C18.7891 14.3473 19.0666 15.3005 19.6133 16.1248C20.0153 16.7356 20.5377 17.258 21.1486 17.66C21.4613 17.8708 21.7306 18.0155 21.9886 18.113C21.8678 18.488 21.7388 18.851 21.5866 19.211C21.2413 20.0183 20.8228 20.7923 20.3363 21.5233C19.9028 22.1525 19.5631 22.6213 19.3051 22.9333C18.9031 23.4095 18.5161 23.7733 18.1253 24.0268C17.6956 24.3118 17.1878 24.464 16.6718 24.464C16.3224 24.4774 15.973 24.4351 15.6368 24.3388C15.3481 24.2413 15.0623 24.1355 14.7811 24.0148C14.4887 23.8804 14.1872 23.7669 13.8788 23.675C13.1166 23.4792 12.3174 23.4779 11.5546 23.6713C11.2418 23.7613 10.9411 23.8663 10.6441 23.9953C10.2263 24.1708 9.94884 24.2885 9.78834 24.3388C9.46809 24.4325 9.13584 24.491 8.79984 24.5105C8.28009 24.5105 7.79559 24.362 7.31559 24.0613L7.32834 24.0508ZM14.1833 5.5895C13.5038 5.92925 12.8551 6.074 12.2108 6.02675C12.1096 5.378 12.2108 4.71425 12.4801 3.9875C12.7093 3.3718 13.048 2.80264 13.4798 2.3075C13.9358 1.78627 14.4892 1.35903 15.1088 1.04975C15.7688 0.710002 16.3981 0.526252 16.9996 0.499252C17.0776 1.17875 16.9996 1.847 16.7498 2.56925C16.5187 3.20772 16.1806 3.8022 15.7501 4.32725C15.3106 4.8492 14.7713 5.27809 14.1638 5.58875L14.1833 5.5895Z" fill="black"/>
</g>
<defs>
<clipPath id="clip0_11355_3081">
<rect width="24" height="24" fill="white" transform="translate(0.25 0.5)"/>
</clipPath>
</defs>
</svg>
