<svg width="25" height="25" viewBox="0 0 25 25" fill="none" xmlns="http://www.w3.org/2000/svg">
<path d="M6.17619 14.7759L5.41673 17.6111L2.64092 17.6698C1.81136 16.1312 1.34082 14.3708 1.34082 12.5C1.34082 10.691 1.78076 8.98513 2.56059 7.48304H2.56119L5.03244 7.93611L6.115 10.3925C5.88842 11.0531 5.76493 11.7622 5.76493 12.5C5.76501 13.3008 5.91007 14.0681 6.17619 14.7759Z" style="fill:#F2C94C;"/>
<path d="M22.9684 10.462C23.0937 11.1219 23.159 11.8034 23.159 12.5C23.159 13.281 23.0769 14.0428 22.9205 14.7777C22.3894 17.2784 21.0018 19.462 19.0795 21.0073L19.0789 21.0067L15.9663 20.8478L15.5257 18.0978C16.8012 17.3497 17.798 16.1791 18.3231 14.7777H12.4897V10.462H18.4082H22.9684Z" style="fill:#518EF8;"/>
<path d="M19.0791 21.0067L19.0797 21.0073C17.2102 22.51 14.8353 23.4091 12.2501 23.4091C8.09566 23.4091 4.48368 21.087 2.64111 17.6699L6.17638 14.776C7.09765 17.2347 9.46948 18.985 12.2501 18.985C13.4453 18.985 14.565 18.6619 15.5258 18.0978L19.0791 21.0067Z" style="fill:#28B446;"/>
<path d="M19.2131 4.10239L15.679 6.99568C14.6846 6.37412 13.5092 6.01506 12.2499 6.01506C9.4063 6.01506 6.99011 7.84561 6.11499 10.3925L2.56114 7.48301H2.56055C4.37614 3.98251 8.03367 1.59091 12.2499 1.59091C14.8968 1.59091 17.3238 2.53378 19.2131 4.10239Z" style="fill:#F14336;"/>
</svg>
