<svg width="21" height="29" viewBox="0 0 21 29" fill="none" xmlns="http://www.w3.org/2000/svg">
<path d="M2.52663 27.6205C1.83457 27.6205 1.24046 27.381 0.744291 26.902C0.248097 26.423 0 25.8494 0 25.1813V8.32711C0 7.6216 0.255662 7.02204 0.766987 6.52841C1.27831 6.03479 1.89938 5.78798 2.63018 5.78798H6.05771V1.21958C6.05771 0.850379 6.21344 0.554808 6.52489 0.332869C6.83633 0.110956 7.2018 0 7.62129 0H13.3787C13.7982 0 14.1637 0.110956 14.4751 0.332869C14.7866 0.554808 14.9423 0.850379 14.9423 1.21958V5.78798H18.4734C19.1654 5.78798 19.7595 6.02749 20.2557 6.5065C20.7519 6.98549 21 7.55904 21 8.22715V25.1813C21 25.8494 20.7519 26.423 20.2557 26.902C19.7595 27.381 19.1654 27.6205 18.4734 27.6205C18.4734 28.0024 18.3341 28.3277 18.0555 28.5966C17.777 28.8655 17.4399 29 17.0444 29C16.6488 29 16.3118 28.8655 16.0332 28.5966C15.7547 28.3277 15.6154 28.0024 15.6154 27.6205H5.38462C5.38462 28.0024 5.24533 28.3277 4.96676 28.5966C4.68821 28.8655 4.35116 29 3.95561 29C3.56005 29 3.223 28.8655 2.94445 28.5966C2.66591 28.3277 2.52663 28.0024 2.52663 27.6205ZM7.59024 5.78798H13.4098L13.3787 1.47947H7.62129L7.59024 5.78798ZM2.52663 25.6612H18.4734C18.6183 25.6612 18.7374 25.6162 18.8306 25.5262C18.9239 25.4363 18.9705 25.3213 18.9705 25.1813V8.22715C18.9705 8.08718 18.9239 7.97221 18.8306 7.88223C18.7374 7.79225 18.6183 7.74726 18.4734 7.74726H2.52663C2.38165 7.74726 2.26256 7.79225 2.16935 7.88223C2.07614 7.97221 2.02954 8.08718 2.02954 8.22715V25.1813C2.02954 25.3213 2.07614 25.4363 2.16935 25.5262C2.26256 25.6162 2.38165 25.6612 2.52663 25.6612ZM4.48372 23.3319H6.01624V10.0765H4.48372V23.3319ZM9.73374 23.3319H11.2663V10.0765H9.73374V23.3319ZM14.9838 23.3319H16.5163V10.0765H14.9838V23.3319Z" fill="white"/>
</svg>
