<svg width="23" height="29" viewBox="0 0 23 29" fill="none" xmlns="http://www.w3.org/2000/svg">
<path d="M0.198242 24.512V22.6798H3.18407V11.6432C3.18407 9.65188 3.79233 7.88956 5.00885 6.3562C6.22539 4.82281 7.80463 3.85918 9.74657 3.46531V2.42952C9.74657 1.93481 9.91531 1.52787 10.2528 1.20872C10.5903 0.889584 11.0061 0.730019 11.5003 0.730019C11.9945 0.730019 12.4103 0.889584 12.7478 1.20872C13.0853 1.52787 13.254 1.93481 13.254 2.42952V3.46531C15.1959 3.85918 16.7777 4.82281 17.9992 6.3562C19.2207 7.88956 19.8315 9.65188 19.8315 11.6432V22.6798H22.8023V24.512H0.198242ZM11.5003 28.8029C10.7923 28.8029 10.176 28.5477 9.6512 28.0372C9.12646 27.5268 8.8641 26.9033 8.8641 26.1667H14.1365C14.1365 26.9033 13.8813 27.5268 13.3709 28.0372C12.8604 28.5477 12.2369 28.8029 11.5003 28.8029ZM5.01628 22.6798H17.9992V11.6432C17.9992 9.83459 17.3707 8.29679 16.1137 7.02976C14.8567 5.76276 13.3238 5.12926 11.5152 5.12926C9.70666 5.12926 8.17135 5.76276 6.90931 7.02976C5.64729 8.29679 5.01628 9.83459 5.01628 11.6432V22.6798Z" fill="white"/>
</svg>
