<svg width="18" height="20" viewBox="0 0 18 20" fill="none" xmlns="http://www.w3.org/2000/svg">
<path d="M2.0641 19.5C1.6343 19.5 1.26617 19.3467 0.9597 19.0403C0.653233 18.7338 0.5 18.3657 0.5 17.9359V3.82052C0.5 3.39072 0.653233 3.02258 0.9597 2.71612C1.26617 2.40967 1.6343 2.25644 2.0641 2.25644H3.75642V0.384644H5.10897V2.25644H12.9294V0.384644H14.2499V2.25644H15.9358C16.3656 2.25644 16.7338 2.40967 17.0402 2.71612C17.3467 3.02258 17.5 3.39072 17.5 3.82052V17.9359C17.5 18.3657 17.3467 18.7338 17.0402 19.0403C16.7338 19.3467 16.3656 19.5 15.9358 19.5H2.0641ZM2.0641 18.2436H15.9358C16.0128 18.2436 16.0833 18.2115 16.1474 18.1474C16.2115 18.0833 16.2436 18.0128 16.2436 17.9359V8.18592H1.75637V17.9359C1.75637 18.0128 1.78843 18.0833 1.85255 18.1474C1.91665 18.2115 1.98717 18.2436 2.0641 18.2436ZM1.75637 6.92954H16.2436V3.82052C16.2436 3.7436 16.2115 3.67309 16.1474 3.60897C16.0833 3.54487 16.0128 3.51282 15.9358 3.51282H2.0641C1.98717 3.51282 1.91665 3.54487 1.85255 3.60897C1.78843 3.67309 1.75637 3.7436 1.75637 3.82052V6.92954ZM8.99997 12.0769C8.75511 12.0769 8.54646 11.9907 8.37402 11.8183C8.20159 11.6458 8.11537 11.4372 8.11537 11.1923C8.11537 10.9475 8.20159 10.7388 8.37402 10.5664C8.54646 10.3939 8.75511 10.3077 8.99997 10.3077C9.24484 10.3077 9.45349 10.3939 9.62592 10.5664C9.79836 10.7388 9.88457 10.9475 9.88457 11.1923C9.88457 11.4372 9.79836 11.6458 9.62592 11.8183C9.45349 11.9907 9.24484 12.0769 8.99997 12.0769ZM4.99997 12.0769C4.75511 12.0769 4.54646 11.9907 4.37402 11.8183C4.20159 11.6458 4.11537 11.4372 4.11537 11.1923C4.11537 10.9475 4.20159 10.7388 4.37402 10.5664C4.54646 10.3939 4.75511 10.3077 4.99997 10.3077C5.24484 10.3077 5.45349 10.3939 5.62592 10.5664C5.79836 10.7388 5.88457 10.9475 5.88457 11.1923C5.88457 11.4372 5.79836 11.6458 5.62592 11.8183C5.45349 11.9907 5.24484 12.0769 4.99997 12.0769ZM13 12.0769C12.7551 12.0769 12.5465 11.9907 12.374 11.8183C12.2016 11.6458 12.1154 11.4372 12.1154 11.1923C12.1154 10.9475 12.2016 10.7388 12.374 10.5664C12.5465 10.3939 12.7551 10.3077 13 10.3077C13.2448 10.3077 13.4535 10.3939 13.6259 10.5664C13.7984 10.7388 13.8846 10.9475 13.8846 11.1923C13.8846 11.4372 13.7984 11.6458 13.6259 11.8183C13.4535 11.9907 13.2448 12.0769 13 12.0769ZM8.99997 16C8.75511 16 8.54646 15.9138 8.37402 15.7413C8.20159 15.5689 8.11537 15.3603 8.11537 15.1154C8.11537 14.8705 8.20159 14.6619 8.37402 14.4894C8.54646 14.317 8.75511 14.2308 8.99997 14.2308C9.24484 14.2308 9.45349 14.317 9.62592 14.4894C9.79836 14.6619 9.88457 14.8705 9.88457 15.1154C9.88457 15.3603 9.79836 15.5689 9.62592 15.7413C9.45349 15.9138 9.24484 16 8.99997 16ZM4.99997 16C4.75511 16 4.54646 15.9138 4.37402 15.7413C4.20159 15.5689 4.11537 15.3603 4.11537 15.1154C4.11537 14.8705 4.20159 14.6619 4.37402 14.4894C4.54646 14.317 4.75511 14.2308 4.99997 14.2308C5.24484 14.2308 5.45349 14.317 5.62592 14.4894C5.79836 14.6619 5.88457 14.8705 5.88457 15.1154C5.88457 15.3603 5.79836 15.5689 5.62592 15.7413C5.45349 15.9138 5.24484 16 4.99997 16ZM13 16C12.7551 16 12.5465 15.9138 12.374 15.7413C12.2016 15.5689 12.1154 15.3603 12.1154 15.1154C12.1154 14.8705 12.2016 14.6619 12.374 14.4894C12.5465 14.317 12.7551 14.2308 13 14.2308C13.2448 14.2308 13.4535 14.317 13.6259 14.4894C13.7984 14.6619 13.8846 14.8705 13.8846 15.1154C13.8846 15.3603 13.7984 15.5689 13.6259 15.7413C13.4535 15.9138 13.2448 16 13 16Z" fill="white"/>
</svg>
