<svg width="35" height="35" viewBox="0 0 35 35" fill="none" xmlns="http://www.w3.org/2000/svg">
<path d="M8.43758 26.4399V27.5887C8.43758 28.0357 8.27391 28.4105 7.94656 28.713C7.61919 29.0154 7.22359 29.1667 6.75976 29.1667H6.34481C5.88101 29.1667 5.48542 29.0085 5.15805 28.6921C4.83068 28.3757 4.66699 27.9934 4.66699 27.5451V16.7973L7.58239 8.46617C7.73803 8.01714 8.00969 7.66052 8.39738 7.39631C8.78505 7.1321 9.22335 7 9.7123 7H25.2755C25.7644 7 26.2027 7.1321 26.5904 7.39631C26.9781 7.66052 27.2498 8.01714 27.4054 8.46617L30.3337 16.7973V27.5451C30.3337 27.9934 30.167 28.3757 29.8336 28.6921C29.5002 29.0085 29.1033 29.1667 28.643 29.1667H28.2053C27.7415 29.1667 27.3459 29.0154 27.0185 28.713C26.6911 28.4105 26.5274 28.0357 26.5274 27.5887V26.4399H8.43758ZM8.60134 14.7032H26.3993L24.7408 9.9199H10.247L8.60134 14.7032ZM11.1295 22.0802C11.663 22.0802 12.1158 21.9006 12.4879 21.5415C12.8601 21.1823 13.0461 20.7462 13.0461 20.2331C13.0461 19.7078 12.8582 19.2613 12.4822 18.8936C12.1063 18.5258 11.6572 18.3419 11.1349 18.3419C10.5827 18.3419 10.1186 18.5253 9.7424 18.892C9.3662 19.2587 9.1781 19.704 9.1781 20.2279C9.1781 20.7518 9.36568 21.1915 9.74083 21.547C10.116 21.9024 10.5789 22.0802 11.1295 22.0802ZM23.8885 22.0802C24.4321 22.0802 24.8941 21.9006 25.2746 21.5415C25.6551 21.1823 25.8453 20.7462 25.8453 20.2331C25.8453 19.7078 25.6556 19.2613 25.2761 18.8936C24.8967 18.5258 24.4359 18.3419 23.8939 18.3419C23.3518 18.3419 22.8969 18.5253 22.529 18.892C22.1612 19.2587 21.9773 19.704 21.9773 20.2279C21.9773 20.7518 22.1631 21.1915 22.5347 21.547C22.9064 21.9024 23.3576 22.0802 23.8885 22.0802Z" fill="white"/>
</svg>
