<svg width="20" height="20" viewBox="0 0 20 20" fill="none" xmlns="http://www.w3.org/2000/svg">
<g clip-path="url(#clip0_304_110)">
<path d="M3.80534 3.33333C3.22161 3.33333 2.67502 3.6416 2.37468 4.1455C2.36304 4.16459 2.35219 4.18414 2.34212 4.2041L0.0846376 8.79882C0.0286663 8.91335 -0.000287958 9.03919 2.15883e-06 9.16666V14.1667C2.15883e-06 14.8653 0.446275 15.4694 1.06446 15.7145C1.50954 16.76 2.54928 17.5 3.75 17.5C4.90263 17.5 5.89809 16.8128 6.37044 15.8333H11.9629C12.4353 16.8128 13.4307 17.5 14.5833 17.5C15.8204 17.5 16.8788 16.7109 17.2998 15.6152L18.7061 14.9121C18.8445 14.8429 18.9609 14.7365 19.0422 14.6048C19.1236 14.4731 19.1667 14.3214 19.1667 14.1667V10.6836C19.1667 9.89475 18.6003 9.20477 17.8272 9.04947L14.7331 8.42936L12.6579 4.2041C12.6478 4.18414 12.637 4.16459 12.6253 4.1455C12.325 3.6416 11.7784 3.33333 11.1947 3.33333H3.80534ZM3.81022 4.99999H6.66667V8.33333H5H2.17123L3.81022 4.99999ZM5 8.33333C5.22102 8.33333 5.43298 8.24553 5.58926 8.08925C5.74554 7.93297 5.83334 7.72101 5.83334 7.5C5.83334 7.27898 5.74554 7.06702 5.58926 6.91074C5.43298 6.75446 5.22102 6.66666 5 6.66666C4.77899 6.66666 4.56703 6.75446 4.41075 6.91074C4.25447 7.06702 4.16667 7.27898 4.16667 7.5C4.16667 7.72101 4.25447 7.93297 4.41075 8.08925C4.56703 8.24553 4.77899 8.33333 5 8.33333ZM8.33334 4.99999H11.1898L12.8272 8.33333H10H8.33334V4.99999ZM10 8.33333C10.221 8.33333 10.433 8.24553 10.5893 8.08925C10.7455 7.93297 10.8333 7.72101 10.8333 7.5C10.8333 7.27898 10.7455 7.06702 10.5893 6.91074C10.433 6.75446 10.221 6.66666 10 6.66666C9.77899 6.66666 9.56703 6.75446 9.41075 6.91074C9.25447 7.06702 9.16667 7.27898 9.16667 7.5C9.16667 7.72101 9.25447 7.93297 9.41075 8.08925C9.56703 8.24553 9.77899 8.33333 10 8.33333ZM1.66667 10H14.0853L17.5 10.6836V13.6523L17.3535 13.7256C16.982 12.5413 15.884 11.6667 14.5833 11.6667C13.1251 11.6667 11.9151 12.7622 11.709 14.1667H6.62435C6.41819 12.7622 5.20828 11.6667 3.75 11.6667C2.93591 11.6667 2.19775 12.0088 1.66667 12.5537V10ZM3.75 13.3333C4.45023 13.3333 5 13.8831 5 14.5833C5 15.2836 4.45023 15.8333 3.75 15.8333C3.04978 15.8333 2.5 15.2836 2.5 14.5833C2.5 13.8831 3.04978 13.3333 3.75 13.3333ZM14.5833 13.3333C15.2836 13.3333 15.8333 13.8831 15.8333 14.5833C15.8333 15.2836 15.2836 15.8333 14.5833 15.8333C13.8831 15.8333 13.3333 15.2836 13.3333 14.5833C13.3333 13.8831 13.8831 13.3333 14.5833 13.3333Z" fill="#9393AE"/>
</g>
<defs>
<clipPath id="clip0_304_110">
<rect width="20" height="20" fill="white"/>
</clipPath>
</defs>
</svg>
