<svg width="16" height="24" viewBox="0 0 16 24" fill="none" xmlns="http://www.w3.org/2000/svg">
<path d="M13.3333 24C14.8067 24 16 22.7726 16 21.2571L16 18.7741C16 18.2941 15.5111 17.9736 15.0937 18.1875C13.8151 18.843 11.2667 19.8857 8 19.8857C4.71333 19.8857 2.17959 18.8471 0.906251 18.1902C0.488919 17.9749 1.40876e-06 18.2968 1.45072e-06 18.7768L1.66756e-06 21.2571C1.80004e-06 22.7726 1.19334 24 2.66667 24L13.3333 24ZM8 17.8286C11.4107 17.8286 14.1385 16.4474 15.3385 15.7205C15.7492 15.4723 16 15.0262 16 14.5366L16 3.66428C16 2.51228 15.2979 1.47561 14.2526 1.0875C12.9153 0.59104 10.7467 -1.44809e-06 8 -1.20797e-06C5.25333 -9.67845e-07 3.08212 0.591041 1.74479 1.0875C0.700792 1.47561 2.88328e-08 2.51228 1.29544e-07 3.66429L1.08003e-06 14.5366C1.12283e-06 15.0262 0.250794 15.4723 0.66146 15.7205C1.86146 16.4474 4.58933 17.8286 8 17.8286Z" fill="white
"/>
</svg>
