<svg width="24" height="24" viewBox="0 0 24 24" fill="none" xmlns="http://www.w3.org/2000/svg">
<path d="M23.156 14.8023L23.0505 16.5333C22.8449 16.5227 22.6772 16.5174 22.5473 16.5174C22.4229 16.5174 22.2985 16.5174 22.174 16.5174C20.3832 16.5174 19.0171 16.7806 18.0757 17.3071C17.1398 17.8336 16.6718 18.6127 16.6718 19.6444C16.6718 20.256 16.8314 20.7506 17.1506 21.1282C17.4698 21.5058 17.8864 21.7797 18.4004 21.9499C18.9197 22.1254 19.477 22.2131 20.0721 22.2131C20.6889 22.2131 21.2894 22.1493 21.8738 22.0217C22.4635 21.894 23.0099 21.7318 23.5131 21.535L24 23.2182C23.4157 23.4629 22.7935 23.6543 22.1335 23.7926C21.4734 23.9309 20.8188 24 20.1695 24C19.4932 24 18.844 23.9176 18.2218 23.7527C17.605 23.5932 17.0532 23.3432 16.5663 23.0028C16.0848 22.6625 15.7033 22.2184 15.422 21.6707C15.1407 21.1282 15 20.4741 15 19.7083C15 18.852 15.2029 18.0703 15.6087 17.363C16.0198 16.6503 16.6853 16.0441 17.605 15.5442C16.9775 14.8688 16.6637 14.1003 16.6637 13.2387C16.6637 12.6591 16.8206 12.1246 17.1344 11.6353C17.4536 11.1461 17.8702 10.7525 18.3841 10.4547C18.9035 10.1516 19.4608 10 20.0559 10C20.5374 10 21.0243 10.0931 21.5167 10.2792C22.009 10.4653 22.5095 10.7312 23.018 11.0769L22.3445 12.5607C21.9549 12.3373 21.5816 12.1592 21.2245 12.0262C20.8729 11.8879 20.5212 11.8188 20.1695 11.8188C19.7096 11.8188 19.2985 11.9571 18.936 12.2336C18.5735 12.5048 18.3922 12.8771 18.3922 13.3504C18.3922 13.7121 18.5059 14.0311 18.7331 14.3077C18.9603 14.5789 19.1659 14.7943 19.3499 14.9538C19.8801 14.89 20.3481 14.8422 20.7538 14.8103C21.1596 14.773 21.5708 14.7544 21.9874 14.7544C22.193 14.7544 22.3769 14.7597 22.5392 14.7704C22.7015 14.7757 22.9071 14.7863 23.156 14.8023Z" fill="white"/>
<path d="M8.80995 13L7.83107 10.1896H3.16063L2.18175 13H0L4.546 1H6.43741L11 13H8.80995ZM3.72474 8.54945H7.25867L5.4917 3.45604L3.72474 8.54945Z" fill="white"/>
<path d="M3 17.5644L5.34303 15L7.69971 17.5644L6.96999 18.3631L5.99006 17.2845V17.7817C5.99006 18.8273 6.33646 19.7244 7.02926 20.4729C7.72207 21.2214 8.55326 21.5957 9.52285 21.5957C9.80737 21.5957 10.0801 21.5628 10.3411 21.4972C10.602 21.4315 10.8494 21.335 11.0831 21.2077L12 22.2202C11.6094 22.4878 11.2081 22.6846 10.7959 22.8108C10.3838 22.9369 9.95941 23 9.52285 23C8.21263 23 7.08151 22.4888 6.1295 21.4664C5.17748 20.4439 4.70148 19.2247 4.70148 17.8087L4.70148 17.2845L3.7243 18.3631L3 17.5644Z" fill="white"/>
<path d="M21 5.43562L18.657 8L16.3003 5.43562L17.03 4.63695L18.0099 5.71548V5.21834C18.0099 4.17268 17.6635 3.2756 16.9707 2.5271C16.2779 1.7786 15.4467 1.40435 14.4771 1.40435C14.1926 1.40435 13.9199 1.43717 13.6589 1.50282C13.398 1.56847 13.1506 1.66495 12.9169 1.79226L12 0.779763C12.3906 0.512221 12.7919 0.315375 13.2041 0.189224C13.6162 0.0630743 14.0406 1.90826e-08 14.4771 0C15.7874 -5.72715e-08 16.9185 0.511211 17.8705 1.53364C18.8225 2.55606 19.2985 3.77529 19.2985 5.19132V5.71548L20.2757 4.63695L21 5.43562Z" fill="white"/>
</svg>
