<svg width="35" height="24" viewBox="0 0 35 24" fill="none" xmlns="http://www.w3.org/2000/svg">
<path d="M0.929688 23.4914V0.806396H3.88916V15.6354H16.6121V3.84458H28.0732C29.7226 3.84458 31.1345 4.43185 32.3091 5.60639C33.4836 6.78093 34.0709 8.19289 34.0709 9.84227V23.4914H31.1114V18.8491H3.88916V23.4914H0.929688ZM10.111 13.877C8.9 13.877 7.87765 13.4612 7.04397 12.6297C6.21029 11.7982 5.79345 10.7769 5.79345 9.56588C5.79345 8.35485 6.20921 7.33755 7.04072 6.51399C7.87224 5.69039 8.89352 5.27859 10.1046 5.27859C11.3156 5.27859 12.3329 5.68931 13.1565 6.51074C13.98 7.33215 14.3918 8.34837 14.3918 9.55942C14.3918 10.7704 13.9811 11.7928 13.1597 12.6264C12.3383 13.4601 11.3221 13.877 10.111 13.877ZM19.5853 15.6354H31.1114V9.84697C31.1114 9.00833 30.8139 8.29151 30.219 7.69651C29.624 7.10154 28.9087 6.80405 28.0732 6.80405H19.5853V15.6354ZM10.1029 11.1716C10.5486 11.1716 10.9273 11.0157 11.2392 10.7038C11.5512 10.3918 11.7071 10.0131 11.7071 9.56748C11.7071 9.12189 11.5512 8.74312 11.2392 8.43118C10.9273 8.11927 10.5486 7.96331 10.1029 7.96331C9.65734 7.96331 9.27859 8.11927 8.96667 8.43118C8.65473 8.74312 8.49877 9.12189 8.49877 9.56748C8.49877 10.0131 8.65473 10.3918 8.96667 10.7038C9.27859 11.0157 9.65734 11.1716 10.1029 11.1716ZM10.1029 11.1716C9.65734 11.1716 9.27859 11.0157 8.96667 10.7038C8.65473 10.3918 8.49877 10.0131 8.49877 9.56748C8.49877 9.12189 8.65473 8.74312 8.96667 8.43118C9.27859 8.11927 9.65734 7.96331 10.1029 7.96331C10.5486 7.96331 10.9273 8.11927 11.2392 8.43118C11.5512 8.74312 11.7071 9.12189 11.7071 9.56748C11.7071 10.0131 11.5512 10.3918 11.2392 10.7038C10.9273 11.0157 10.5486 11.1716 10.1029 11.1716ZM19.5853 6.80405H28.0732C28.9087 6.80405 29.624 7.10154 30.219 7.69651C30.8139 8.29151 31.1114 9.00676 31.1114 9.84227V15.6354H19.5853V6.80405Z" fill="white"/>
</svg>
