<svg width="23" height="29" viewBox="0 0 23 29" fill="none" xmlns="http://www.w3.org/2000/svg">
<path d="M9.89955 22.1515L17.6885 14.3719L16.4377 13.1212L9.89204 19.6762L6.46124 16.2453L5.22731 17.4793L9.89955 22.1515ZM2.84348 28.3541C2.21669 28.3541 1.67983 28.1307 1.2329 27.6837C0.785965 27.2368 0.5625 26.6999 0.5625 26.0732V2.92685C0.5625 2.30006 0.785965 1.7632 1.2329 1.31627C1.67983 0.869339 2.21669 0.645874 2.84348 0.645874H15.1515L22.4374 7.93185V26.0732C22.4374 26.6999 22.214 27.2368 21.767 27.6837C21.3201 28.1307 20.7832 28.3541 20.1564 28.3541H2.84348ZM14.2353 8.79377V2.47809H2.84348C2.73128 2.47809 2.62845 2.52484 2.53497 2.61834C2.44147 2.71182 2.39471 2.81466 2.39471 2.92685V26.0732C2.39471 26.1854 2.44147 26.2882 2.53497 26.3817C2.62845 26.4752 2.73128 26.5219 2.84348 26.5219H20.1564C20.2686 26.5219 20.3715 26.4752 20.465 26.3817C20.5585 26.2882 20.6052 26.1854 20.6052 26.0732V8.79377H14.2353Z" fill="white"/>
</svg>
