<svg width="16" height="20" viewBox="0 0 16 20" fill="none" xmlns="http://www.w3.org/2000/svg">
<path d="M8.00145 9.62818C8.45047 9.62818 8.83384 9.46883 9.15158 9.15013C9.46929 8.83141 9.62815 8.44755 9.62815 7.99853C9.62815 7.54951 9.4688 7.16614 9.1501 6.84841C8.83138 6.53069 8.44752 6.37183 7.9985 6.37183C7.54948 6.37183 7.16611 6.53118 6.84837 6.84988C6.53066 7.1686 6.3718 7.55246 6.3718 8.00148C6.3718 8.4505 6.53115 8.83387 6.84985 9.15161C7.16857 9.46932 7.55243 9.62818 8.00145 9.62818ZM7.99997 18.1302C10.147 16.2148 11.766 14.3937 12.857 12.667C13.9481 10.9403 14.4936 9.45129 14.4936 8.20001C14.4936 6.23866 13.8678 4.63271 12.6163 3.38218C11.3647 2.13166 9.82598 1.50641 7.99997 1.50641C6.17397 1.50641 4.63521 2.13166 3.38367 3.38218C2.13214 4.63271 1.50637 6.23866 1.50637 8.20001C1.50637 9.45129 2.05808 10.9403 3.1615 12.667C4.26493 14.3937 5.87776 16.2148 7.99997 18.1302ZM7.99997 19.8077C5.39358 17.5436 3.45031 15.442 2.17017 13.5029C0.890058 11.5638 0.25 9.79616 0.25 8.20001C0.25 5.77694 1.03012 3.84617 2.59037 2.40771C4.15062 0.969256 5.95382 0.250031 7.99997 0.250031C10.0461 0.250031 11.8493 0.969256 13.4096 2.40771C14.9698 3.84617 15.75 5.77694 15.75 8.20001C15.75 9.79616 15.1099 11.5638 13.8298 13.5029C12.5496 15.442 10.6064 17.5436 7.99997 19.8077Z" fill="white"/>
</svg>
