<svg width="20" height="21" viewBox="0 0 20 21" fill="none" xmlns="http://www.w3.org/2000/svg">
<g>
<path d="M10.3167 0.501767C13.2365 0.501767 15.6144 2.87961 15.6144 5.80242L15.6143 7.37891C17.3894 7.99668 18.6663 9.68657 18.6663 11.6698V15.9585C18.6663 18.4634 16.6294 20.5002 14.1246 20.5002H6.48408C3.97925 20.5002 1.94238 18.4634 1.94238 15.9585V11.6698C1.94238 9.68694 3.21882 7.99732 4.99339 7.37926L4.99408 5.80242C5.00008 4.36251 5.55704 3.0336 6.56198 2.03767C7.56791 1.04073 8.89582 0.463769 10.3167 0.501767ZM14.1246 8.62803H6.48408C4.80619 8.62803 3.44228 9.99194 3.44228 11.6698V15.9585C3.44228 17.6364 4.80619 19.0003 6.48408 19.0003H14.1246C15.8015 19.0003 17.1664 17.6364 17.1664 15.9585V11.6698C17.1664 9.99194 15.8015 8.62803 14.1246 8.62803ZM10.3041 11.9536C10.7181 11.9536 11.0541 12.2896 11.0541 12.7036V14.9244C11.0541 15.3384 10.7181 15.6744 10.3041 15.6744C9.89016 15.6744 9.55418 15.3384 9.55418 14.9244V12.7036C9.55418 12.2896 9.89016 11.9536 10.3041 11.9536ZM10.3137 2.00167H10.2977C9.2848 2.00167 8.33586 2.39164 7.61891 3.10259C6.89696 3.81655 6.49798 4.76948 6.49398 5.78542L6.49308 7.12756H14.1136L14.1145 5.80242C14.1145 3.70655 12.4096 2.00167 10.3137 2.00167Z" fill="white"/>
</g>
</svg>
