<svg width="27" height="26" viewBox="0 0 27 26" fill="none" xmlns="http://www.w3.org/2000/svg">
<path d="M5.32896 15.7924H15.8666V14.0304H5.32896V15.7924ZM5.32896 11.4141H21.671V9.65205H5.32896V11.4141ZM5.32896 7.0358H21.671V5.27374H5.32896V7.0358ZM0 26V2.19364C0 1.59908 0.217753 1.08483 0.65326 0.650898C1.08877 0.216966 1.6119 0 2.22267 0H24.7773C25.3798 0 25.9008 0.216966 26.3405 0.650898C26.7802 1.08483 27 1.59908 27 2.19364V18.8437C27 19.4383 26.7802 19.9525 26.3405 20.3865C25.9008 20.8204 25.3798 21.0374 24.7773 21.0374H5.02834L0 26ZM1.78538 21.7351L4.27773 19.2753H24.7773C24.9049 19.2753 25.0096 19.2348 25.0916 19.1539C25.1736 19.073 25.2146 18.9696 25.2146 18.8437V2.19364C25.2146 2.06777 25.1736 1.96437 25.0916 1.88345C25.0096 1.80252 24.9049 1.76206 24.7773 1.76206H2.22267C2.09513 1.76206 1.99037 1.80252 1.90837 1.88345C1.82638 1.96437 1.78538 2.06777 1.78538 2.19364V21.7351ZM1.78538 2.19364V1.76206V21.7351V2.19364Z" fill="white"/>
</svg>
