<svg width="14" height="22" viewBox="0 0 14 22" fill="none" xmlns="http://www.w3.org/2000/svg">
<path d="M2.0641 21.5C1.6343 21.5 1.26617 21.3467 0.9597 21.0403C0.653233 20.7338 0.5 20.3657 0.5 19.9359V2.0641C0.5 1.6343 0.653233 1.26617 0.9597 0.9597C1.26617 0.653233 1.6343 0.5 2.0641 0.5H11.9358C12.3656 0.5 12.7338 0.653233 13.0403 0.9597C13.3467 1.26617 13.5 1.6343 13.5 2.0641V19.9359C13.5 20.3657 13.3467 20.7338 13.0403 21.0403C12.7338 21.3467 12.3656 21.5 11.9358 21.5H2.0641ZM1.75638 17.3782V19.9359C1.75638 20.0128 1.78843 20.0833 1.85255 20.1474C1.91665 20.2115 1.98717 20.2436 2.0641 20.2436H11.9358C12.0128 20.2436 12.0833 20.2115 12.1474 20.1474C12.2115 20.0833 12.2436 20.0128 12.2436 19.9359V17.3782H1.75638ZM7.003 19.5705C7.21423 19.5705 7.39367 19.4967 7.54132 19.3493C7.68896 19.2018 7.76277 19.0214 7.76277 18.808C7.76277 18.5945 7.68794 18.414 7.53828 18.2663C7.38861 18.1187 7.20817 18.0449 6.99695 18.0449C6.78572 18.0449 6.60628 18.1197 6.45863 18.2693C6.31099 18.419 6.23718 18.5994 6.23718 18.8106C6.23718 19.0262 6.31201 19.2067 6.46167 19.3522C6.61134 19.4977 6.79178 19.5705 7.003 19.5705ZM1.75638 16.1218H12.2436V4.14098H1.75638V16.1218ZM1.75638 2.8846H12.2436V2.0641C12.2436 1.98717 12.2115 1.91665 12.1474 1.85255C12.0833 1.78843 12.0128 1.75637 11.9358 1.75637H2.0641C1.98717 1.75637 1.91665 1.78843 1.85255 1.85255C1.78843 1.91665 1.75638 1.98717 1.75638 2.0641V2.8846Z" fill="white"/>
</svg>
