<svg width="22" height="16" viewBox="0 0 22 16" fill="none" xmlns="http://www.w3.org/2000/svg">
<path d="M0.771484 15.3077V13.3013C0.771484 12.7791 0.906201 12.3157 1.17563 11.9112C1.44508 11.5068 1.81659 11.1955 2.29016 10.9774C3.32854 10.5057 4.30617 10.1502 5.22303 9.91062C6.13992 9.67109 7.15712 9.55132 8.27463 9.55132C9.39217 9.55132 10.4066 9.67109 11.3179 9.91062C12.2292 10.1502 13.2062 10.5057 14.2489 10.9774C14.7182 11.1955 15.0892 11.5068 15.3621 11.9112C15.635 12.3157 15.7714 12.7791 15.7714 13.3013V15.3077H0.771484ZM17.5278 15.3077V13.2795C17.5278 12.4675 17.3361 11.7642 16.9527 11.1694C16.5693 10.5747 16.0563 10.0802 15.4137 9.68595C16.2287 9.80389 17.0028 9.97109 17.7361 10.1875C18.4695 10.404 19.1065 10.6518 19.6473 10.931C20.1347 11.1997 20.5202 11.5352 20.8037 11.9375C21.0873 12.3398 21.2291 12.7871 21.2291 13.2795V15.3077H17.5278ZM8.27463 7.68204C7.31002 7.68204 6.5053 7.35964 5.86048 6.71482C5.21567 6.07002 4.89326 5.2653 4.89326 4.30067C4.89326 3.33605 5.21567 2.5324 5.86048 1.88972C6.5053 1.24705 7.31002 0.92572 8.27463 0.92572C9.23927 0.92572 10.0429 1.24705 10.6856 1.88972C11.3283 2.5324 11.6496 3.33605 11.6496 4.30067C11.6496 5.2653 11.3283 6.07002 10.6856 6.71482C10.0429 7.35964 9.23927 7.68204 8.27463 7.68204ZM16.4188 4.30067C16.4188 5.2653 16.0974 6.07002 15.4548 6.71482C14.8121 7.35964 14.0077 7.68204 13.0415 7.68204C12.9281 7.68204 12.7994 7.67265 12.6554 7.65385C12.5114 7.63505 12.383 7.60684 12.2701 7.56924C12.6397 7.15153 12.9214 6.66444 13.1153 6.10797C13.3091 5.55152 13.406 4.94976 13.406 4.30269C13.406 3.65563 13.3059 3.06414 13.1057 2.52824C12.9055 1.99236 12.627 1.49365 12.2701 1.03212C12.3889 0.998786 12.5173 0.97272 12.6554 0.95392C12.7934 0.93512 12.9218 0.92572 13.0406 0.92572C14.0074 0.92572 14.8121 1.24705 15.4548 1.88972C16.0974 2.5324 16.4188 3.33605 16.4188 4.30067ZM2.02783 14.0513H14.515V13.3013C14.515 13.0539 14.447 12.825 14.3109 12.6147C14.1747 12.4045 13.974 12.2329 13.7086 12.1C12.7368 11.6329 11.8398 11.3008 11.0176 11.1035C10.1954 10.9063 9.28105 10.8077 8.27463 10.8077C7.26822 10.8077 6.35219 10.9063 5.52656 11.1035C4.70093 11.3008 3.80221 11.6329 2.83041 12.1C2.56503 12.2329 2.36492 12.4045 2.23008 12.6147C2.09525 12.825 2.02783 13.0539 2.02783 13.3013V14.0513ZM8.27143 6.42567C8.871 6.42567 9.37453 6.22194 9.78201 5.81447C10.1895 5.40699 10.3932 4.90345 10.3932 4.30387C10.3932 3.7043 10.1895 3.20078 9.78201 2.79329C9.37453 2.38583 8.871 2.18209 8.27143 2.18209C7.67187 2.18209 7.16834 2.38583 6.76086 2.79329C6.35338 3.20078 6.14963 3.7043 6.14963 4.30387C6.14963 4.90345 6.35338 5.40699 6.76086 5.81447C7.16834 6.22194 7.67187 6.42567 8.27143 6.42567Z" fill="white"/>
</svg>
