<svg width="22" height="16" viewBox="0 0 22 16" fill="none" xmlns="http://www.w3.org/2000/svg">
<path d="M11.0397 15.7769C8.90166 15.7769 7.07057 15.0181 5.54642 13.5006C4.02229 11.9831 3.26022 10.1585 3.26022 8.02692V6.77945L1.22047 8.82562L0.373047 7.9782L3.8884 4.45642L7.41017 7.9782L6.56277 8.82562L4.5166 6.77945V8.02692C4.5166 9.82052 5.15292 11.3512 6.42557 12.6189C7.69822 13.8867 9.23626 14.5205 11.0397 14.5205C11.4786 14.5205 11.9092 14.4787 12.3317 14.3952C12.7541 14.3117 13.1566 14.1885 13.539 14.0257L14.4576 14.9442C13.9085 15.2288 13.3494 15.4388 12.7804 15.574C12.2114 15.7093 11.6311 15.7769 11.0397 15.7769ZM18.1217 11.5641L14.6 8.0423L15.464 7.18465L17.4935 9.22055V8.02692C17.4935 6.23332 16.8572 4.70266 15.5846 3.43492C14.3119 2.16719 12.776 1.53332 10.9769 1.53332C10.5337 1.53332 10.102 1.57573 9.68167 1.66055C9.26137 1.74538 8.85785 1.86237 8.4711 2.01152L7.55895 1.09295C8.10381 0.80833 8.66182 0.60118 9.23297 0.471497C9.80412 0.341797 10.3854 0.276947 10.9769 0.276947C13.1149 0.276947 14.9449 1.03464 16.4669 2.55002C17.9889 4.06539 18.7499 5.89102 18.7499 8.02692V9.24107L20.7961 7.2013L21.6435 8.0423L18.1217 11.5641Z" fill="white"/>
</svg>
