<svg width="25" height="29" viewBox="0 0 25 29" fill="none" xmlns="http://www.w3.org/2000/svg">
<path d="M3.43383 28.3541C2.49124 28.3541 1.69158 28.0258 1.03487 27.3691C0.37816 26.7123 0.0498047 25.9127 0.0498047 24.9701V21.2401H4.54822V0.926331L6.56443 2.6651L8.60873 0.926331L10.653 2.6651L12.6973 0.926331L14.7415 2.6651L16.7888 0.926331L18.8361 2.6651L20.8833 0.926331L22.9306 2.6651L24.9498 0.926331V24.9701C24.9498 25.9127 24.6215 26.7123 23.9648 27.3691C23.308 28.0258 22.5084 28.3541 21.5658 28.3541H3.43383ZM21.5705 26.5219C22.0167 26.5219 22.3861 26.3756 22.6787 26.083C22.9713 25.7904 23.1176 25.4194 23.1176 24.9701V3.9364H6.38043V21.2401H20.0233V24.9701C20.0233 25.4194 20.1696 25.7904 20.4622 26.083C20.7548 26.3756 21.1242 26.5219 21.5705 26.5219ZM8.35108 9.36589V7.53368H16.6243V9.36589H8.35108ZM8.35108 13.997V12.1648H16.6243V13.997H8.35108ZM19.885 9.56222C19.584 9.56222 19.3233 9.45206 19.103 9.23176C18.8827 9.01145 18.7725 8.75079 18.7725 8.44976C18.7725 8.14876 18.8827 7.88811 19.103 7.6678C19.3233 7.4475 19.584 7.33735 19.885 7.33735C20.186 7.33735 20.4466 7.4475 20.6669 7.6678C20.8872 7.88811 20.9974 8.14876 20.9974 8.44976C20.9974 8.75079 20.8872 9.01145 20.6669 9.23176C20.4466 9.45206 20.186 9.56222 19.885 9.56222ZM19.885 14.0999C19.584 14.0999 19.3233 13.9897 19.103 13.7694C18.8827 13.5491 18.7725 13.2884 18.7725 12.9874C18.7725 12.6864 18.8827 12.4258 19.103 12.2054C19.3233 11.9851 19.584 11.875 19.885 11.875C20.186 11.875 20.4466 11.9851 20.6669 12.2054C20.8872 12.4258 20.9974 12.6864 20.9974 12.9874C20.9974 13.2884 20.8872 13.5491 20.6669 13.7694C20.4466 13.9897 20.186 14.0999 19.885 14.0999ZM3.41221 26.5219H18.1911V23.0724H1.88202V24.9701C1.88202 25.4194 2.02954 25.7904 2.32459 26.083C2.61961 26.3756 2.98215 26.5219 3.41221 26.5219Z" fill="white"/>
</svg>
