<svg width="24" height="24" viewBox="0 0 24 24" fill="none" xmlns="http://www.w3.org/2000/svg">
<path d="M19.6911 20.5665L13.2719 14.1473C12.7735 14.5784 12.1951 14.9122 11.5367 15.1488C10.8782 15.3854 10.1968 15.5037 9.49235 15.5037C7.79072 15.5037 6.35058 14.9147 5.17193 13.7367C3.99326 12.5587 3.40393 11.1266 3.40393 9.44057C3.40393 7.75448 3.99294 6.32192 5.17096 5.14287C6.34896 3.9638 7.78222 3.37427 9.47076 3.37427C11.1593 3.37427 12.5929 3.96343 13.7717 5.14174C14.9504 6.32006 15.5398 7.75253 15.5398 9.43917C15.5398 10.1442 15.4199 10.8262 15.1802 11.4851C14.9404 12.1441 14.6026 12.7332 14.1667 13.2524L20.5962 19.655L19.6911 20.5665ZM9.48211 14.2473C10.8222 14.2473 11.9574 13.781 12.8878 12.8483C13.8182 11.9156 14.2834 10.7792 14.2834 9.43899C14.2834 8.09883 13.8182 6.96239 12.8878 6.02969C11.9574 5.09699 10.8222 4.63064 9.48211 4.63064C8.13631 4.63064 6.99622 5.09699 6.06186 6.02969C5.12749 6.96239 4.66031 8.09883 4.66031 9.43899C4.66031 10.7792 5.12749 11.9156 6.06186 12.8483C6.99622 13.781 8.13631 14.2473 9.48211 14.2473Z" fill="white"/>
</svg>
