<?xml version="1.0" encoding="UTF-8"?>
<svg width="28px" height="41px" viewBox="0 0 28 41" version="1.1" xmlns="http://www.w3.org/2000/svg" xmlns:xlink="http://www.w3.org/1999/xlink">
    <title>set_destination_location</title>
    <g id="Page-1" stroke="none" stroke-width="1" fill="none" fill-rule="evenodd">
        <g id="set_destination_location" fill="white" fill-rule="nonzero">
            <rect id="Rectangle" x="11" y="20" width="6" height="21" rx="3"></rect>
            <path d="M20,0 C24.418278,-8.11624501e-16 28,3.581722 28,8 L28,20 C28,24.418278 24.418278,28 20,28 L8,28 C3.581722,28 5.41083001e-16,24.418278 0,20 L0,8 C-5.41083001e-16,3.581722 3.581722,8.11624501e-16 8,0 L20,0 Z M16,8 L12,8 C9.790861,8 8,9.790861 8,12 L8,12 L8,16 C8,18.209139 9.790861,20 12,20 L12,20 L16,20 C18.209139,20 20,18.209139 20,16 L20,16 L20,12 C20,9.790861 18.209139,8 16,8 L16,8 Z" id="Combined-Shape"></path>
        </g>
    </g>
</svg>