<svg width="45" height="45" viewBox="0 0 45 45" fill="none" xmlns="http://www.w3.org/2000/svg">
<path d="M22.5 0C10.1221 0 0 10.1221 0 22.5C0 34.8779 10.1221 45 22.5 45C34.8779 45 45 34.8779 45 22.5C45 10.1221 34.8779 0 22.5 0ZM22.5 5.625C29.0625 5.625 34.8779 9.375 37.6904 15C38.2471 16.1279 37.1265 17.2485 35.9985 16.6846C33.0029 15.1904 27.9346 13.3154 22.5 13.3154C17.0654 13.3154 11.9971 15.1904 9.00146 16.6846C8.06396 17.2485 6.93604 16.1279 7.30957 15C10.1221 9.375 15.9375 5.625 22.5 5.625ZM18.9404 38.064C18.9404 38.6279 18.3765 39.0015 18.0029 38.811C12.3779 37.3096 7.87354 32.8125 6.37207 27.1875C6.18896 26.6235 6.5625 26.25 7.12646 26.25H7.30957C13.689 26.0596 18.9404 31.311 18.9404 38.064ZM22.5 27.1875C19.8779 27.1875 17.8125 25.1221 17.8125 22.5C17.8125 19.8779 19.8779 17.8125 22.5 17.8125C25.1221 17.8125 27.1875 19.8779 27.1875 22.5C27.1875 25.1221 25.1221 27.1875 22.5 27.1875ZM26.9971 38.811C26.4404 39.0015 26.0596 38.6279 26.0596 38.064V37.8735C26.0596 31.311 31.311 26.0596 37.8735 26.0596H38.064C38.6279 26.0596 39.0015 26.6235 38.811 26.9971C37.1265 32.6221 32.6221 37.1265 26.9971 38.811Z" fill="white"/>
</svg>
