<svg width="29" height="29" viewBox="0 0 29 29" fill="none" xmlns="http://www.w3.org/2000/svg">
<path d="M5.56643 22.5882C6.95061 21.6122 8.36671 20.8513 9.81474 20.3053C11.2628 19.7594 12.8244 19.4864 14.4996 19.4864C16.1748 19.4864 17.739 19.7594 19.192 20.3053C20.645 20.8513 22.0636 21.6122 23.4478 22.5882C24.4568 21.4371 25.2213 20.1879 25.7414 18.8405C26.2615 17.4932 26.5216 16.0464 26.5216 14.5C26.5216 11.129 25.3606 8.28261 23.0388 5.9608C20.717 3.63899 17.8706 2.47808 14.4996 2.47808C11.1287 2.47808 8.28225 3.63899 5.96044 5.9608C3.63863 8.28261 2.47772 11.129 2.47772 14.5C2.47772 16.0464 2.74026 17.4932 3.26533 18.8405C3.7904 20.1879 4.55744 21.4371 5.56643 22.5882ZM14.4945 15.4161C13.1767 15.4161 12.0672 14.9638 11.1661 14.0592C10.2649 13.1546 9.8143 12.0434 9.8143 10.7256C9.8143 9.40785 10.2666 8.29836 11.1712 7.39718C12.0758 6.49601 13.187 6.04542 14.5048 6.04542C15.8226 6.04542 16.9321 6.49772 17.8332 7.40232C18.7344 8.3069 19.185 9.41809 19.185 10.7359C19.185 12.0537 18.7327 13.1632 17.8281 14.0644C16.9235 14.9655 15.8123 15.4161 14.4945 15.4161ZM14.511 28.3541C12.5895 28.3541 10.7869 27.9923 9.10322 27.2688C7.41953 26.5452 5.95077 25.5559 4.69694 24.3007C3.44311 23.0455 2.45442 21.5787 1.73087 19.9001C1.0073 18.2215 0.645508 16.4209 0.645508 14.4982C0.645508 12.5755 1.0073 10.7755 1.73087 9.09811C2.45442 7.42071 3.44378 5.95444 4.69895 4.6993C5.95408 3.44414 7.42095 2.45478 9.09954 1.73123C10.7781 1.00765 12.5788 0.645866 14.5014 0.645866C16.4241 0.645866 18.2241 1.00765 19.9015 1.73123C21.5789 2.45478 23.0452 3.44414 24.3003 4.6993C25.5555 5.95444 26.5449 7.42097 27.2684 9.09888C27.992 10.7768 28.3538 12.5734 28.3538 14.4886C28.3538 16.4101 27.992 18.2127 27.2684 19.8964C26.5449 21.5801 25.5555 23.0489 24.3003 24.3027C23.0452 25.5565 21.5787 26.5452 19.9008 27.2688C18.2228 27.9923 16.4263 28.3541 14.511 28.3541ZM14.4996 26.5219C15.8421 26.5219 17.1563 26.3077 18.4423 25.8792C19.7283 25.4507 20.9176 24.7887 22.0101 23.8932C20.9176 23.078 19.7383 22.4451 18.4722 21.9945C17.2061 21.5439 15.8819 21.3186 14.4996 21.3186C13.1173 21.3186 11.7908 21.5416 10.5201 21.9875C9.2493 22.4334 8.07546 23.0686 6.99855 23.8932C8.08482 24.7887 9.27097 25.4507 10.557 25.8792C11.843 26.3077 13.1572 26.5219 14.4996 26.5219ZM14.5009 13.5839C15.324 13.5839 16.005 13.3139 16.5441 12.7739C17.0832 12.234 17.3528 11.5525 17.3528 10.7295C17.3528 9.90644 17.0828 9.22537 16.5428 8.68628C16.0029 8.14718 15.3214 7.87763 14.4983 7.87763C13.6753 7.87763 12.9942 8.14762 12.4552 8.68759C11.9161 9.22754 11.6465 9.90903 11.6465 10.7321C11.6465 11.5551 11.9165 12.2362 12.4564 12.7753C12.9964 13.3144 13.6779 13.5839 14.5009 13.5839Z" fill="white"/>
</svg>
