<svg width="24" height="24" viewBox="0 0 24 24" fill="none" xmlns="http://www.w3.org/2000/svg">
<rect x="4" y="13" width="16" height="7" fill="#D0F5DF"/>
<path d="M7.25008 3C5.18783 3 3.50008 4.68775 3.50008 6.75V8.0332C3.41614 8.00312 3.32752 7.98823 3.23836 7.98926C3.03962 7.99236 2.85023 8.07422 2.71181 8.21686C2.57338 8.3595 2.49723 8.55125 2.50008 8.75V11.25C2.49853 11.3708 2.52618 11.4902 2.58068 11.598C2.63518 11.7058 2.71492 11.7989 2.81311 11.8692C2.91129 11.9396 3.02503 11.9852 3.14463 12.0022C3.26424 12.0192 3.38618 12.0071 3.50008 11.9668V17.5V18.25V20.5C3.50008 21.0525 3.94758 21.5 4.50008 21.5H5.00008C5.55258 21.5 6.00008 21.0525 6.00008 20.5H18.0001C18.0001 21.0525 18.4476 21.5 19.0001 21.5H19.5001C20.0526 21.5 20.5001 21.0525 20.5001 20.5V18.25V17.5V11.9668C20.614 12.0071 20.7359 12.0192 20.8555 12.0022C20.9751 11.9852 21.0889 11.9396 21.187 11.8692C21.2852 11.7989 21.365 11.7058 21.4195 11.598C21.474 11.4902 21.5016 11.3708 21.5001 11.25V8.75C21.5015 8.64962 21.4828 8.54997 21.445 8.45695C21.4072 8.36394 21.3512 8.27946 21.2801 8.20852C21.2091 8.13758 21.1245 8.08161 21.0315 8.04395C20.9384 8.00629 20.8387 7.98769 20.7384 7.98926C20.6571 7.9909 20.5766 8.00574 20.5001 8.0332V6.75C20.5001 4.68775 18.8123 3 16.7501 3H7.25008ZM7.25008 4.5H16.7501C18.0018 4.5 19.0001 5.49825 19.0001 6.75V12.5H5.00008V6.75C5.00008 5.49825 5.99833 4.5 7.25008 4.5ZM10.7501 5.5C10.6507 5.49859 10.552 5.51696 10.4598 5.55402C10.3676 5.59108 10.2836 5.6461 10.2129 5.71588C10.1421 5.78566 10.0859 5.86882 10.0475 5.96051C10.0091 6.0522 9.9894 6.15061 9.9894 6.25C9.9894 6.34939 10.0091 6.4478 10.0475 6.53949C10.0859 6.63118 10.1421 6.71434 10.2129 6.78412C10.2836 6.8539 10.3676 6.90892 10.4598 6.94598C10.552 6.98304 10.6507 7.00141 10.7501 7H13.2501C13.3495 7.00141 13.4481 6.98304 13.5404 6.94598C13.6326 6.90892 13.7165 6.8539 13.7873 6.78412C13.8581 6.71434 13.9143 6.63118 13.9526 6.53949C13.991 6.4478 14.0108 6.34939 14.0108 6.25C14.0108 6.15061 13.991 6.0522 13.9526 5.96051C13.9143 5.86882 13.8581 5.78566 13.7873 5.71588C13.7165 5.6461 13.6326 5.59108 13.5404 5.55402C13.4481 5.51696 13.3495 5.49859 13.2501 5.5H10.7501ZM5.00008 14H19.0001V18.25C19.0001 18.6732 18.6733 19 18.2501 19H5.75008C5.32683 19 5.00008 18.6732 5.00008 18.25V14ZM7.50008 15.5C7.23486 15.5 6.98051 15.6054 6.79297 15.7929C6.60543 15.9804 6.50008 16.2348 6.50008 16.5C6.50008 16.7652 6.60543 17.0196 6.79297 17.2071C6.98051 17.3946 7.23486 17.5 7.50008 17.5C7.76529 17.5 8.01965 17.3946 8.20718 17.2071C8.39472 17.0196 8.50008 16.7652 8.50008 16.5C8.50008 16.2348 8.39472 15.9804 8.20718 15.7929C8.01965 15.6054 7.76529 15.5 7.50008 15.5ZM16.5001 15.5C16.2349 15.5 15.9805 15.6054 15.793 15.7929C15.6054 15.9804 15.5001 16.2348 15.5001 16.5C15.5001 16.7652 15.6054 17.0196 15.793 17.2071C15.9805 17.3946 16.2349 17.5 16.5001 17.5C16.7653 17.5 17.0196 17.3946 17.2072 17.2071C17.3947 17.0196 17.5001 16.7652 17.5001 16.5C17.5001 16.2348 17.3947 15.9804 17.2072 15.7929C17.0196 15.6054 16.7653 15.5 16.5001 15.5Z" fill="#060543"/>
</svg>
