<svg width="24" height="24" viewBox="0 0 24 24" fill="none" xmlns="http://www.w3.org/2000/svg">
<rect x="4" y="10" width="16" height="8" fill="#F9E584"/>
<path d="M10.7802 1.5C10.3212 1.5 9.92149 1.81281 9.81049 2.25781L9.62494 3H8.16791C6.67105 3 5.36016 4.03134 5.00873 5.48633L4.64252 7H3.74994C3.65056 6.99859 3.55188 7.01696 3.45966 7.05402C3.36743 7.09108 3.28349 7.1461 3.21271 7.21588C3.14194 7.28566 3.08573 7.36882 3.04737 7.46051C3.00901 7.5522 2.98926 7.65061 2.98926 7.75C2.98926 7.84939 3.00901 7.9478 3.04737 8.03949C3.08573 8.13118 3.14194 8.21434 3.21271 8.28412C3.28349 8.3539 3.36743 8.40892 3.45966 8.44598C3.55188 8.48304 3.65056 8.50141 3.74994 8.5H4.28021L4.06537 9.38965C3.44097 9.79144 2.99994 10.4594 2.99994 11.25V17.5V17.75V19.5C2.99994 20.0525 3.44744 20.5 3.99994 20.5H4.99994C5.55244 20.5 5.99994 20.0525 5.99994 19.5V18.5H17.9999V19.5C17.9999 20.0525 18.4474 20.5 18.9999 20.5H19.9999C20.5524 20.5 20.9999 20.0525 20.9999 19.5V17.75V17.5V11.25C20.9999 10.4594 20.5589 9.79144 19.9345 9.38965L19.7197 8.5H20.2499C20.3493 8.50141 20.448 8.48304 20.5402 8.44598C20.6324 8.40892 20.7164 8.3539 20.7872 8.28412C20.8579 8.21434 20.9141 8.13118 20.9525 8.03949C20.9909 7.9478 21.0106 7.84939 21.0106 7.75C21.0106 7.65061 20.9909 7.5522 20.9525 7.46051C20.9141 7.36882 20.8579 7.28566 20.7872 7.21588C20.7164 7.1461 20.6324 7.09108 20.5402 7.05402C20.448 7.01696 20.3493 6.99859 20.2499 7H19.3574L18.9911 5.48633C18.6397 4.03134 17.3288 3 15.832 3H14.3749L14.1894 2.25781C14.0779 1.81281 13.6777 1.5 13.2187 1.5H10.7802ZM8.16791 4.5H15.832C16.6441 4.5 17.3426 5.04986 17.5331 5.83887L18.2968 9H5.70306L6.46674 5.83887C6.65731 5.04986 7.35576 4.5 8.16791 4.5ZM5.24994 10.5H18.7499C19.1732 10.5 19.4999 10.8268 19.4999 11.25V17H4.49994V11.25C4.49994 10.8268 4.82669 10.5 5.24994 10.5ZM6.99994 12C6.73472 12 6.48037 12.1054 6.29283 12.2929C6.1053 12.4804 5.99994 12.7348 5.99994 13C5.99994 13.2652 6.1053 13.5196 6.29283 13.7071C6.48037 13.8946 6.73472 14 6.99994 14C7.26516 14 7.51951 13.8946 7.70705 13.7071C7.89458 13.5196 7.99994 13.2652 7.99994 13C7.99994 12.7348 7.89458 12.4804 7.70705 12.2929C7.51951 12.1054 7.26516 12 6.99994 12ZM16.9999 12C16.7347 12 16.4804 12.1054 16.2928 12.2929C16.1053 12.4804 15.9999 12.7348 15.9999 13C15.9999 13.2652 16.1053 13.5196 16.2928 13.7071C16.4804 13.8946 16.7347 14 16.9999 14C17.2652 14 17.5195 13.8946 17.707 13.7071C17.8946 13.5196 17.9999 13.2652 17.9999 13C17.9999 12.7348 17.8946 12.4804 17.707 12.2929C17.5195 12.1054 17.2652 12 16.9999 12ZM10.2499 14C10.1506 13.9986 10.0519 14.017 9.95966 14.054C9.86743 14.0911 9.78349 14.1461 9.71271 14.2159C9.64194 14.2857 9.58573 14.3688 9.54737 14.4605C9.50901 14.5522 9.48926 14.6506 9.48926 14.75C9.48926 14.8494 9.50901 14.9478 9.54737 15.0395C9.58573 15.1312 9.64194 15.2143 9.71271 15.2841C9.78349 15.3539 9.86743 15.4089 9.95966 15.446C10.0519 15.483 10.1506 15.5014 10.2499 15.5H13.7499C13.8493 15.5014 13.948 15.483 14.0402 15.446C14.1324 15.4089 14.2164 15.3539 14.2872 15.2841C14.3579 15.2143 14.4141 15.1312 14.4525 15.0395C14.4909 14.9478 14.5106 14.8494 14.5106 14.75C14.5106 14.6506 14.4909 14.5522 14.4525 14.4605C14.4141 14.3688 14.3579 14.2857 14.2872 14.2159C14.2164 14.1461 14.1324 14.0911 14.0402 14.054C13.948 14.017 13.8493 13.9986 13.7499 14H10.2499Z" fill="#060543"/>
</svg>
