<svg width="24" height="24" viewBox="0 0 24 24" fill="none" xmlns="http://www.w3.org/2000/svg">
<path d="M20 17.5H4V10.5L5.69407 10.9235C9.83431 11.9586 14.1657 11.9586 18.3059 10.9235L20 10.5V17.5Z" fill="#A4CBFF"/>
<path d="M8.15424 2.5C6.11409 2.5 4.35362 3.9613 3.97748 5.9668L3.3476 9H2.24994C2.15056 8.99859 2.05188 9.01696 1.95966 9.05402C1.86743 9.09108 1.78349 9.1461 1.71271 9.21588C1.64194 9.28566 1.58573 9.36882 1.54737 9.46051C1.50901 9.5522 1.48926 9.65061 1.48926 9.75C1.48926 9.84939 1.50901 9.9478 1.54737 10.0395C1.58573 10.1312 1.64194 10.2143 1.71271 10.2841C1.78349 10.3539 1.86743 10.4089 1.95966 10.446C2.05188 10.483 2.15056 10.5014 2.24994 10.5H2.99994V10.7168C2.99751 10.7516 2.99751 10.7865 2.99994 10.8213V17.5V17.75V20C2.99994 20.5525 3.44744 21 3.99994 21H4.99994C5.55244 21 5.99994 20.5525 5.99994 20V18.5H17.9999V20C17.9999 20.5525 18.4474 21 18.9999 21H19.9999C20.5524 21 20.9999 20.5525 20.9999 20V17.75V17.5V10.8076C21.002 10.7757 21.002 10.7438 20.9999 10.7119V10.5H21.7499C21.8493 10.5014 21.948 10.483 22.0402 10.446C22.1324 10.4089 22.2164 10.3539 22.2872 10.2841C22.3579 10.2143 22.4141 10.1312 22.4525 10.0395C22.4909 9.9478 22.5106 9.84939 22.5106 9.75C22.5106 9.65061 22.4909 9.5522 22.4525 9.46051C22.4141 9.36882 22.3579 9.28566 22.2872 9.21588C22.2164 9.1461 22.1324 9.09108 22.0402 9.05402C21.948 9.01696 21.8493 8.99859 21.7499 9H20.6523L20.0224 5.9668C19.6463 3.96144 17.8852 2.5 15.8447 2.5H8.15424ZM8.15424 4H15.8447C17.1731 4 18.3029 4.93752 18.5478 6.24316C18.5487 6.24806 18.5497 6.25294 18.5507 6.25781L19.3271 9.99707C18.9131 10.2323 18.2674 10.4687 17.3486 10.6377C16.0621 10.8743 14.2854 11 11.9999 11C9.71447 11 7.93778 10.8743 6.65131 10.6377C5.73243 10.4687 5.08678 10.2323 4.67279 9.99707L5.44916 6.25781C5.44986 6.25294 5.45051 6.24805 5.45111 6.24316C5.69597 4.93766 6.82638 4 8.15424 4ZM9.99994 5C9.73472 5 9.48037 5.10536 9.29283 5.29289C9.1053 5.48043 8.99994 5.73478 8.99994 6C8.99994 6.26522 9.1053 6.51957 9.29283 6.70711C9.48037 6.89464 9.73472 7 9.99994 7C10.2652 7 10.5195 6.89464 10.707 6.70711C10.8946 6.51957 10.9999 6.26522 10.9999 6C10.9999 5.73478 10.8946 5.48043 10.707 5.29289C10.5195 5.10536 10.2652 5 9.99994 5ZM13.9999 5C13.7347 5 13.4804 5.10536 13.2928 5.29289C13.1053 5.48043 12.9999 5.73478 12.9999 6C12.9999 6.26522 13.1053 6.51957 13.2928 6.70711C13.4804 6.89464 13.7347 7 13.9999 7C14.2652 7 14.5195 6.89464 14.707 6.70711C14.8946 6.51957 14.9999 6.26522 14.9999 6C14.9999 5.73478 14.8946 5.48043 14.707 5.29289C14.5195 5.10536 14.2652 5 13.9999 5ZM7.49994 7C7.10212 7 6.72058 7.15804 6.43928 7.43934C6.15798 7.72064 5.99994 8.10218 5.99994 8.5C5.99994 8.89782 6.15798 9.27936 6.43928 9.56066C6.72058 9.84196 7.10212 10 7.49994 10C7.89776 10 8.2793 9.84196 8.5606 9.56066C8.8419 9.27936 8.99994 8.89782 8.99994 8.5C8.99994 8.10218 8.8419 7.72064 8.5606 7.43934C8.2793 7.15804 7.89776 7 7.49994 7ZM11.9999 7C11.6021 7 11.2206 7.15804 10.9393 7.43934C10.658 7.72064 10.4999 8.10218 10.4999 8.5C10.4999 8.89782 10.658 9.27936 10.9393 9.56066C11.2206 9.84196 11.6021 10 11.9999 10C12.3978 10 12.7793 9.84196 13.0606 9.56066C13.3419 9.27936 13.4999 8.89782 13.4999 8.5C13.4999 8.10218 13.3419 7.72064 13.0606 7.43934C12.7793 7.15804 12.3978 7 11.9999 7ZM16.4999 7C16.1021 7 15.7206 7.15804 15.4393 7.43934C15.158 7.72064 14.9999 8.10218 14.9999 8.5C14.9999 8.89782 15.158 9.27936 15.4393 9.56066C15.7206 9.84196 16.1021 10 16.4999 10C16.8978 10 17.2793 9.84196 17.5606 9.56066C17.8419 9.27936 17.9999 8.89782 17.9999 8.5C17.9999 8.10218 17.8419 7.72064 17.5606 7.43934C17.2793 7.15804 16.8978 7 16.4999 7ZM4.49994 11.5928C5.03026 11.812 5.65247 11.9785 6.37982 12.1123C7.8121 12.3757 9.66041 12.5 11.9999 12.5C14.3395 12.5 16.1878 12.3757 17.6201 12.1123C18.3474 11.9785 18.9696 11.812 19.4999 11.5928V17H4.49994V11.5928ZM6.99994 13.5C6.73472 13.5 6.48037 13.6054 6.29283 13.7929C6.1053 13.9804 5.99994 14.2348 5.99994 14.5C5.99994 14.7652 6.1053 15.0196 6.29283 15.2071C6.48037 15.3946 6.73472 15.5 6.99994 15.5C7.26516 15.5 7.51951 15.3946 7.70705 15.2071C7.89458 15.0196 7.99994 14.7652 7.99994 14.5C7.99994 14.2348 7.89458 13.9804 7.70705 13.7929C7.51951 13.6054 7.26516 13.5 6.99994 13.5ZM16.9999 13.5C16.7347 13.5 16.4804 13.6054 16.2928 13.7929C16.1053 13.9804 15.9999 14.2348 15.9999 14.5C15.9999 14.7652 16.1053 15.0196 16.2928 15.2071C16.4804 15.3946 16.7347 15.5 16.9999 15.5C17.2652 15.5 17.5195 15.3946 17.707 15.2071C17.8946 15.0196 17.9999 14.7652 17.9999 14.5C17.9999 14.2348 17.8946 13.9804 17.707 13.7929C17.5195 13.6054 17.2652 13.5 16.9999 13.5ZM10.2499 14C10.1506 13.9986 10.0519 14.017 9.95966 14.054C9.86743 14.0911 9.78349 14.1461 9.71271 14.2159C9.64194 14.2857 9.58573 14.3688 9.54737 14.4605C9.50901 14.5522 9.48926 14.6506 9.48926 14.75C9.48926 14.8494 9.50901 14.9478 9.54737 15.0395C9.58573 15.1312 9.64194 15.2143 9.71271 15.2841C9.78349 15.3539 9.86743 15.4089 9.95966 15.446C10.0519 15.483 10.1506 15.5014 10.2499 15.5H13.7499C13.8493 15.5014 13.948 15.483 14.0402 15.446C14.1324 15.4089 14.2164 15.3539 14.2872 15.2841C14.3579 15.2143 14.4141 15.1312 14.4525 15.0395C14.4909 14.9478 14.5106 14.8494 14.5106 14.75C14.5106 14.6506 14.4909 14.5522 14.4525 14.4605C14.4141 14.3688 14.3579 14.2857 14.2872 14.2159C14.2164 14.1461 14.1324 14.0911 14.0402 14.054C13.948 14.017 13.8493 13.9986 13.7499 14H10.2499Z" fill="#060543"/>
</svg>
